<?xml version="1.0" encoding="UTF-8"?>
<svg id="Layer_2" xmlns="http://www.w3.org/2000/svg" xmlns:xlink="http://www.w3.org/1999/xlink" version="1.1" viewBox="0 0 80 81.7">
  <!-- Generator: Adobe Illustrator 29.5.1, SVG Export Plug-In . SVG Version: 2.1.0 Build 141)  -->
  <defs>
    <style>
      .st0 {
        fill: none;
      }

      .st1 {
        fill: #f6b29d;
      }

      .st1, .st2, .st3, .st4, .st5, .st6, .st7, .st8 {
        fill-rule: evenodd;
      }

      .st2 {
        fill: #f8f7f7;
      }

      .st3 {
        fill: #2e2828;
      }

      .st4 {
        fill: #fcd4c8;
      }

      .st5 {
        fill: #7d6e6e;
      }

      .st9 {
        clip-path: url(#clippath-1);
      }

      .st10 {
        clip-path: url(#clippath-2);
      }

      .st6 {
        fill: #f3baa9;
      }

      .st7 {
        fill: #c1b9b9;
      }

      .st8 {
        fill: #e4e0e0;
      }

      .st11 {
        clip-path: url(#clippath);
      }
    </style>
    <clipPath id="clippath">
      <path class="st0" d="M22.2,8c-.4.3-.8,1.6-1.1,2h0c-.5.5-1.9.9-2.5,1.2h0c-1.3.6-1.5,1.6-.7,2.5h0c.1.1,0,.4,0,.5h0c-.8,1,.2,2.9-.1,4.4h0c-.2.7-1,1.9-1.2,2.6h0c-1.5,8,0,15.4,0,15.4h0l6.2,31.8h37.4l3.5-31.2s0-8.1-1.4-15.8h0c-.2-1-.8-1.6-1-2.6h0c-.3-1.6.6-3.1-.3-4.1h0c-.1-.1-.4-.4,0-1h0c.4-.6.3-1.9-.4-2.4h0c-.5-.4-2-.8-2.2-1h0c-.4-.6-.8-2.4-1.4-2.7h0c-1.3-.8-3.1-1.5-5.3-2h0c-3.4-.8-7.7-1.2-12-1.2h0c-7.1,0-14.2,1.2-17.5,3.8Z"/>
    </clipPath>
    <clipPath id="clippath-1">
      <rect class="st0" x="32.8" y="48.4" width="14.3" height="15.6"/>
    </clipPath>
    <clipPath id="clippath-2">
      <path class="st0" d="M40,60.7c-4.7,0-7.2-3.6-7.2-3.6h0l-18.6,7.6c-.8,1.3-1.4,2.7-1.8,4.2h0c7.2,6.8,16.9,11,27.6,11h0c11.3,0,21.4-4.7,28.7-12.1h0c-1-2.5-2-4-2-4h0c-2.7-1.8-19.5-6.8-19.5-6.8h0s-2.1,3.7-7.1,3.7Z"/>
    </clipPath>
  </defs>
  <g id="Layer_1-2">
    <g>
      <path class="st2" d="M57,7.5c-1.3-.8-3.1-1.5-5.3-2-9.1-2.2-24.3-1.6-29.5,2.5-.4.3-.8,1.6-1.1,2-.5.5-1.9.9-2.5,1.2-1.3.6-1.5,1.6-.7,2.5.1.1,0,.4,0,.5-.8,1,.2,2.9-.1,4.4-.1.7-1,1.9-1.2,2.6-1.5,8-.1,15.4-.1,15.4l6.2,31.8h37.4l3.5-31.2s0-8.1-1.4-15.9c-.2-1-.8-1.6-1-2.6-.3-1.6.6-3.1-.3-4.1-.1-.1-.5-.4,0-1,.4-.6.3-1.9-.4-2.4-.5-.4-2-.8-2.2-1-.4-.6-.8-2.4-1.4-2.7h0Z"/>
      <g class="st11">
        <g>
          <path class="st5" d="M15.2,19s27.2-12,48.2.8l3.4-5.6C43.1-.2,12.6,13,12.6,13l2.6,6h0Z"/>
          <path class="st8" d="M23.2,62.6s-3.8-20.8-5-30.2c-.2-1.2,5.5,3.8,6.2,3.3,5.1-3.9,36.1-12,37.1-3.3.9,8.8-2.8,30.8-2.8,30.8l-35.4-.5h0Z"/>
        </g>
      </g>
      <polygon class="st4" points="47.1 48.4 32.8 48.4 32.8 64 47.1 64 47.1 48.4 47.1 48.4"/>
      <g class="st9">
        <path class="st1" d="M40,36.3c8,0,14.6,4.5,14.6,10s-6.5,10-14.6,10-14.6-4.5-14.6-10,6.5-10,14.6-10h0Z"/>
      </g>
      <g>
        <path class="st4" d="M59.1,24.6c3.2,0,4.2,2.5,4.2,6s-2.6,6.3-5.8,6.3-5.6,1.5-5.6-2,3.9-10.3,7.1-10.3h0Z"/>
        <path class="st6" d="M57.3,33.5s.5-2,1.5-3.5c.7-.9,1.6-1.6,2.7-1.3v-.5c-1.3-.4-2.4.4-3.2,1.5-1.1,1.5-1.6,3.7-1.6,3.7h.5c0,.1,0,.1,0,.1Z"/>
        <path class="st6" d="M59.8,28.5s.5,1.7.3,3.1c-.1.9-.5,1.6-1.6,1.6v.5c1.4,0,2-1,2.1-2.1.2-1.5-.3-3.4-.3-3.4h-.5c0,.1,0,.2,0,.2Z"/>
        <path class="st4" d="M20.8,24.9c-3.2,0-4.2,2.5-4.2,6s2.6,6.3,5.8,6.3,5.6,1.5,5.6-2-3.9-10.3-7.1-10.3h0Z"/>
        <path class="st6" d="M23.2,33.6s-.5-2.2-1.6-3.7c-.8-1.1-1.9-1.9-3.3-1.5v.5c1.3-.3,2.2.4,2.9,1.3,1.1,1.5,1.5,3.5,1.5,3.5h.5c0-.1,0-.1,0-.1Z"/>
        <path class="st6" d="M19.7,28.6s-.5,1.9-.3,3.4c.2,1.1.7,2,2.1,2.1v-.5c-1,0-1.4-.8-1.6-1.6-.2-1.4.3-3.1.3-3.1h-.5c0-.1,0-.2,0-.2Z"/>
        <path class="st4" d="M25.1,47.9c-1.9-2.4-3-5.3-3-8.5l.8-16.6,17.8-2.4,17.6,2.6-.8,16.4c0,3.2-1.1,6.1-3,8.5h0c-3.2,4.1-8.6,6.8-14.7,6.8s-11.5-2.7-14.7-6.8h0c0,0,0,0,0,0ZM22.2,39.2h0s0,0,0,0h0ZM22.2,38.9h0c0,0,0,0,0,0h0ZM22.2,38.6h0s0,0,0,0h0s0,0,0,0ZM22.3,38c0,0,0,.2,0,.2s0,.2,0,.2c0-.2,0-.3,0-.4h0ZM57.5,38.3h0s0,0,0,0h0ZM57.5,38.3h0s0,0,0,0h0ZM57.5,38.2h0s0,0,0,0h0ZM57.5,38.1h0s0,0,0,0h0ZM57.5,38.1h0s0,0,0,0h0ZM57.5,38h0s0,0,0,0h0ZM22.3,37.8h0c0,.1,0,0,0,0h0ZM57.5,37.9h0s0,0,0,0h0ZM57.5,37.9h0s0,0,0,0h0ZM57.5,37.8h0s0,0,0,0h0ZM57.5,37.7h0s0,0,0,0h0ZM57.5,37.7h0s0,0,0,0h0ZM57.5,37.6h0s0,0,0,0h0s0,0,0,0ZM57.5,37.5h0c0,0,0,0,0,0h0ZM57.5,37.5h0c0,0,0,0,0,0h0ZM57.4,37.4h0c0,0,0,0,0,0h0ZM57.4,37.3h0c0,0,0,0,0,0h0ZM57.4,37.3h0c0,0,0,0,0,0h0ZM57.4,37.2h0c0,0,0,0,0,0h0s0,0,0,0ZM57.4,37.1h0c0,0,0,0,0,0h0ZM57.4,37.1h0c0,0,0,0,0,0h0ZM57.4,37h0c0,0,0,0,0,0h0ZM57.4,36.9h0c0,0,0,0,0,0h0ZM57.3,36.9h0c0,0,0,0,0,0h0ZM57.3,36.8h0c0,0,0,0,0,0h0s0,0,0,0ZM57.3,36.8h0c0,0,0,0,0,0h0s0,0,0,0ZM57.3,36.7h0c0,0,0,0,0,0h0ZM57.3,36.6h0c0,0,0,0,0,0h0ZM57.3,36.6h0c0,0,0,0,0,0h0ZM57.3,36.5h0s0,0,0,0h0s0,0,0,0ZM57.2,36.4h0s0,0,0,0h0ZM57.2,36.4h0s0,0,0,0h0ZM57.2,36.2h0c0,0,0,0,0,0h0ZM57.2,36.1h0s0,0,0,0h0ZM57.2,36.1h0s0,0,0,0h0ZM57.1,36h0s0,0,0,0h0ZM57.1,35.9h0s0,0,0,0h0ZM57.1,35.9h0s0,0,0,0h0ZM22.7,35.8h0s0,0,0,0h0ZM57.1,35.8h0s0,0,0,0h0ZM57.1,35.8s0,0,0,0h0ZM57,35.4h0c0,0,0,0,0,0h0ZM56.9,35.3h0s0,0,0,0h0ZM56.9,35.2h0s0,0,0,0h0ZM56.9,35.2h0s0,0,0,0h0ZM56.9,35.1h0s0,0,0,0h0ZM56.8,35h0s0,0,0,0h0s0,0,0,0ZM56.8,34.9h0s0,0,0,0h0ZM56.8,34.9h0c0,0,0,0,0,0h0ZM56.3,33.7h0ZM56.3,33.7h0s0,0,0,0h0ZM56.3,33.7c0,0,0-.1,0-.2,0,0,0,.1,0,.2h0ZM56,33.2h0c0,0,0,0,0,0h0ZM56,33.1h0c0,0,0,0,0,0h0ZM55.9,33h0c0,0,0,0,0,0h0ZM23.9,33h0ZM23.9,32.9h0s0,0,0,0h0ZM55.9,32.9s0,0,0-.1h0ZM23.9,32.8h0s0,0,0,0h0ZM24,32.7h0s0,0,0,0h0ZM24,32.7h0c0,0,0,0,0,0h0ZM24.1,32.6h0c0,0,0,0,0,0h0ZM24.1,32.5h0c0,0,0,0,0,0h0ZM24.2,32.4h0c0,0,0,0,0,0h0ZM55.6,32.3h0c0,0,0,0,0,0h0ZM24.2,32.3h0c0,0,0,0,0,0h0ZM55.5,32.2h0s0,0,0,0h0ZM55.5,32.1h0s0,0,0,0h0ZM24.4,32.1s0,0,0,0h0ZM55.4,32h0s0,0,0,0h0ZM24.4,32h0s0,0,0,0h0ZM55.3,31.9h0s0,0,0,0h0s0,0,0,0ZM24.5,31.9h0s0,0,0,0h0ZM55.3,31.8h0s0,0,0,0h0s0,0,0,0ZM24.5,31.8h0s0,0,0,0h0ZM55.2,31.7h0s0,0,0,0h0s0,0,0,0ZM24.6,31.7h0s0,0,0,0h0ZM24.6,31.7h0s0,0,0,0h0ZM55.1,31.6h0s0,0,0,0h0s0,0,0,0ZM24.7,31.6h0s0,0,0,0h0s0,0,0,0ZM55,31.5h0s0,0,0,0h0s0,0,0,0ZM24.8,31.5h0c0,0,0,0,0,0h0s0,0,0,0ZM55,31.4h0s0,0,0,0h0s0,0,0,0ZM54.9,31.3h0s0,0,0,0h0s0,0,0,0ZM54.8,31.2h0s0,0,0,0h0s0,0,0,0ZM54.8,31.1h0s0,0,0,0h0s0,0,0,0ZM25,31.1h0ZM25.1,31.1h0ZM54.7,31h0s0,0,0,0h0s0,0,0,0ZM25.1,31h0ZM54.6,30.9h0s0,0,0,0h0s0,0,0,0ZM25.2,31h0ZM25.2,30.9h0ZM54.5,30.8h0s0,0,0,0h0s0,0,0,0ZM25.3,30.8h0ZM25.3,30.8h0,0ZM25.4,30.7h0,0ZM25.4,30.6h0,0ZM25.5,30.5h0,0ZM25.5,30.5h0,0ZM25.6,30.4h0s0,0,0,0ZM25.6,30.4h0s0,0,0,0ZM25.7,30.3h0,0s0,0,0,0h0ZM25.8,30.2h0,0s0,0,0,0h0ZM26,30s0,0,0,0h0ZM26,30h0c0,0,0,0,0,0h0ZM26.1,29.8h0s0,0,0,0h0ZM53.6,29.8h0ZM53.5,29.7h0ZM53.4,29.6h0s0,0,0,0h0ZM53.3,29.5h0s0,0,0,0h0ZM53.3,29.4h0s0,0,0,0h0ZM26.8,29.1s0,0,0,0,0,0,0,0c0,0,0,0,0,0h0ZM52.9,29.1h0s0,0,0,0h0ZM52.8,29h0s0,0,0,0h0ZM27,28.9h0s0,0,0,0h0s0,0,0,0ZM52.7,28.9h0s0,0,0,0h0ZM27.1,28.8h0s0,0,0,0h0s0,0,0,0ZM27.2,28.7h0s0,0,0,0h0s0,0,0,0ZM27.3,28.6h0s0,0,0,0h0s0,0,0,0ZM52.4,28.6h0s0,0,0,0h0ZM27.4,28.6h0s0,0,0,0h0s0,0,0,0ZM52.3,28.5h0s0,0,0,0h0s0,0,0,0ZM27.5,28.5h0s0,0,0,0h0s0,0,0,0ZM52.2,28.5h0,0ZM27.6,28.4h0s0,0,0,0h0s0,0,0,0ZM52.2,28.4h0ZM27.7,28.3h0c0,0,0,0,0,0h0s0,0,0,0ZM28.9,27.4s0,0,0,0c0,0,0,0,0,0,0,0,.1,0,.1-.1h0ZM29.2,27.2s-.1,0-.1.1-.1,0-.1.1c.1,0,.2-.1.3-.2h0ZM30,26.7h0,0,0ZM30.2,26.6h0s0,0,0,0h0ZM30.8,26.3h0s0,0,0,0h0s0,0,0,0ZM48.8,26.2h0s0,0,0,0h0,0ZM31.1,26.1s0,0,0,0,0,0,0,0c0,0,0,0,0,0h0ZM48.7,26.2h0s0,0,0,0h0ZM48.7,26.1h0s0,0,0,0h0ZM48.6,26.1h0s0,0,0,0h0s0,0,0,0ZM31.9,25.7s0,0,0,0,0,0,0,0h.1c0,0,0,0,0,0ZM47.7,25.7h0,0ZM32.2,25.6s0,0,0,0c0,0,0,0,.1,0h0s0,0,0,0ZM32.6,25.5s0,0,0,0c0,0,0,0,0,0h.2c0,0,0,0,0,0ZM32.7,25.5s0,0,0,0c0,0,0,0,0,0h0ZM47,25.4h.1s0,0-.1,0h0ZM33,25.3s0,0,0,0c0,0,0,0,0,0h.1ZM46.7,25.3h0s0,0,0,0h0ZM33.5,25.2s0,0,0,0c0,0,0,0,0,0h.2s0,0,0,0ZM46.3,25.1h.1s0,0-.1,0h0ZM46.2,25.1h0s0,0,0,0h0ZM46.1,25.1h0s0,0,0,0h0ZM33.9,25s0,0,0,0c0,0,0,0,0,0h0ZM46,25h0s0,0,0,0h0ZM34,25s0,0,0,0h0s0,0,0,0h0ZM34.1,25h0,0,0ZM45.3,24.8h.1s0,0,0,0h0s0,0,0,0ZM34.6,24.8h0,0ZM45.2,24.8s0,0-.1,0h.1ZM34.7,24.8h0,0,0ZM35,24.7c0,0-.1,0-.2,0h.3c0,0,0,0,0,0h0ZM35.4,24.6s0,0,0,0h.1s0,0,0,0h0ZM35.8,24.5h0,0ZM36.7,24.4h0,.1s0,0,0,0h0ZM36.9,24.3h0,0,0ZM42.8,24.3h.1s0,0-.1,0h0ZM42.7,24.3h0,0ZM42.6,24.3h0,0ZM42.5,24.3h0s0,0,0,0h0ZM37.5,24.2h0,0,0,0ZM37.6,24.2h0,0,0ZM37.7,24.2h0,0ZM38,24.2h0,0ZM38.1,24.2h0,0,0ZM38.3,24.2h0,0,0ZM39.6,24.1h-.1.1,0ZM39.8,24.1h0,.1,0,0Z"/>
        <path class="st7" d="M32.8,57.1s2.5,3.6,7.2,3.6c5,0,7.1-3.7,7.1-3.7,0,0,16.9,5,19.5,6.8,0,0,3.1,4.4,3.5,10.7,0,0-33.1,13.7-58.7,3.1,0,0-.6-7.7,2.7-12.9l18.6-7.6h0Z"/>
      </g>
      <g class="st10">
        <polygon class="st5" points="36.8 57 36.5 81.4 43.1 81.5 43.3 57 36.8 57 36.8 57"/>
      </g>
      <g>
        <path class="st3" d="M48.2,44c-.3,1.7,3.5,1.7,3.9,1.6,3.1-1.2,2.8-25.6,2.8-25.6,0,0,2.8.9,3.1,5.8.2,4.9,0,14.9-1.8,21.8-3.4,13-14,14.7-15.4,14.6-6.8.4-15.6-3-18-14.1-1.5-7-1-17.4-.8-22.3.2-4.9,3.1-5.8,3.1-5.8,0,0-1.2,19.4,2.8,25.6.2.3.4.5.6.8,1,.8,4.2-.1,3.9-2.3-.6-3.6-.4-5.1,4.6-5.2,2,0,4.2,0,6,0,5.2,0,5.8,1.3,5.2,5.2h0ZM45.9,49.2c.6-.5,1.5-1.6,1.8-3.5.6-3.9.4-5-4.1-5-1.6,0-2.7,0-3.3,0h-3.3c-4.5,0-4.8,1.1-4.1,5,.3,2.1,1.4,3.2,2,3.7,3.1,1.5,8.2,1.5,11.2-.2h0Z"/>
        <path class="st2" d="M60.8,19.7s-8.6-3.7-6.1,2.5c4.3,10.7,8.8,10.2,8.8,10.2l-1-8.2-1.7-4.4h0Z"/>
        <path class="st2" d="M18.9,19.7s8.6-3.7,6.1,2.5c-4.2,10.7-8.8,10.2-8.8,10.2l1-8.2,1.7-4.4h0Z"/>
      </g>
    </g>
  </g>
</svg>